<?xml version="1.0" encoding="UTF-8" standalone="no"?><!DOCTYPE svg PUBLIC "-//W3C//DTD SVG 1.1//EN" "http://www.w3.org/Graphics/SVG/1.1/DTD/svg11.dtd"><svg width="100%" height="100%" viewBox="0 0 7942 7942" version="1.1" xmlns="http://www.w3.org/2000/svg" xmlns:xlink="http://www.w3.org/1999/xlink" xml:space="preserve" xmlns:serif="http://www.serif.com/" style="fill-rule:evenodd;clip-rule:evenodd;stroke-linejoin:round;stroke-miterlimit:2;"><path d="M442.196,441.413c-712.588,712.15 -537.396,2071.67 334.617,3527.01c-856.676,1428.21 -1056.4,2806.97 -334.617,3528.81c712.592,713.029 2072.46,537.4 3527.02,-334.616c1428.2,856.679 2806.97,1056.4 3528.81,334.616c712.587,-712.154 537.837,-2071.68 -334.617,-3527.01c856.675,-1428.21 1056.4,-2806.97 334.617,-3528.81c-467.763,-467.762 -1218.88,-555.35 -2104.86,-302.641c-148.908,42.046 -235.2,197.525 -192.716,346.437c42.487,148.471 197.525,234.759 346.433,192.263c709.958,-202.346 1256.1,-138.838 1554.8,160.304c726.167,726.167 -1.317,2775.91 -1744.05,4519.08c-133.584,133.579 -270.238,262.342 -409.067,385.854c-115.621,102.925 -125.7,279.867 -22.775,395.488c102.925,115.621 279.867,126.137 395.488,23.212c147.162,-130.52 291.258,-266.725 432.725,-408.191c406.004,-406.004 763.391,-829.959 1065.15,-1256.55c634.183,1159.79 730.541,2156.1 282.491,2604.25c-726.166,726.167 -2775.91,-1.313 -4519.08,-1744.05c-133.583,-133.579 -262.342,-270.234 -385.858,-409.063c-102.921,-115.621 -280.304,-126.137 -395.921,-23.212c-115.621,102.921 -125.7,280.304 -22.775,395.921c130.521,146.725 266.725,291.262 408.192,432.725c406.004,406.004 829.958,763.391 1256.55,1065.15c-1158.44,633.312 -2155.76,730.979 -2604.25,282.492c-726.17,-726.167 1.313,-2775.91 1744.06,-4519.08c143.212,-143.212 289.495,-280.304 437.966,-411.7l236.95,-197.087c275.921,-229.938 672.729,-243.08 963.104,-31.971l256.655,186.141c77.962,56.5 187.02,38.984 243.52,-38.979c41.605,-57.812 44.234,-134.891 6.13,-195.337l-176.938,-279.429c-183.95,-290.821 -157.229,-667.475 65.696,-929.392l204.533,-239.567c65.696,-77.087 56.5,-193.154 -20.587,-258.846c-56.059,-47.737 -134.892,-57.375 -200.596,-24.966l-460.317,227.741c-254.458,126.138 -557.108,104.675 -791.421,-56.058l-338.116,-231.692c-81.025,-55.62 -191.392,-35.037 -246.575,45.992c-40.296,58.688 -41.609,135.767 -3.504,195.775l163.795,257.096c196.217,307.458 154.609,709.517 -100.295,970.108l-196.65,201.471c-149.346,132.271 -296.067,270.675 -439.73,414.325c-406.004,406.004 -763.391,829.958 -1065.16,1256.55c-633.746,-1159.34 -730.537,-2156.1 -282.487,-2604.25c235.633,-235.633 623.237,-326.296 1133.44,-251.838c152.854,21.9 295.196,-84.087 317.529,-237.383c22.338,-153.292 -84.091,-295.192 -237.383,-317.529c-670.546,-97.229 -1233.79,33.725 -1609.96,410.387l0.041,0.05l0.017,0Zm4809,1644.6c-108.179,111.246 -105.554,288.625 5.691,396.375c33.725,32.846 67.45,66.134 100.738,99.421c211.537,211.538 410.825,430.525 596.083,653.892c98.984,119.129 275.484,135.333 394.613,36.792c119.129,-98.984 135.766,-275.921 36.787,-395.05c-196.212,-236.513 -407.316,-468.2 -631.121,-692.005c-35.475,-35.479 -70.95,-70.516 -106.429,-105.116c-111.246,-107.742 -288.625,-105.113 -396.371,5.696l0.009,-0.005Z" style="fill:#fff;fill-rule:nonzero;"/></svg>